<mxfile host="Electron" modified="2023-10-12T12:38:35.158Z" agent="Mozilla/5.0 (Windows NT 10.0; Win64; x64) AppleWebKit/537.36 (KHTML, like Gecko) draw.io/22.0.2 Chrome/114.0.5735.289 Electron/25.8.4 Safari/537.36" etag="P3Nqbhya-lsMj0zxEQ7l" version="22.0.2" type="device">
  <diagram name="Strona-1" id="YC_GEDHGgiGdcqC15yX_">
    <mxGraphModel dx="1235" dy="740" grid="1" gridSize="10" guides="1" tooltips="1" connect="1" arrows="1" fold="1" page="1" pageScale="1" pageWidth="827" pageHeight="1169" math="0" shadow="0">
      <root>
        <mxCell id="0" />
        <mxCell id="1" parent="0" />
        <mxCell id="O70aOBj58ElGAtLsK645-30" value="" style="ellipse;whiteSpace=wrap;html=1;fillColor=#60a917;fontColor=#ffffff;strokeColor=#2D7600;rotation=45;" vertex="1" parent="1">
          <mxGeometry x="472" y="400" width="190" height="90" as="geometry" />
        </mxCell>
        <mxCell id="O70aOBj58ElGAtLsK645-1" value="&lt;p style=&quot;margin: 0px ; margin-top: 4px ; margin-left: 10px ; text-align: left&quot;&gt;&lt;b&gt;Delete list entries compoment&lt;/b&gt;&lt;/p&gt;" style="html=1;strokeWidth=1;shape=mxgraph.sysml.package;html=1;overflow=fill;whiteSpace=wrap;fillColor=none;gradientColor=none;fontSize=12;align=center;labelX=327.64;" vertex="1" parent="1">
          <mxGeometry x="240" y="190" width="440" height="950" as="geometry" />
        </mxCell>
        <mxCell id="O70aOBj58ElGAtLsK645-2" value="" style="ellipse;html=1;shape=startState;fillColor=#000000;strokeColor=#ff0000;" vertex="1" parent="1">
          <mxGeometry x="399" y="270" width="30" height="30" as="geometry" />
        </mxCell>
        <mxCell id="O70aOBj58ElGAtLsK645-3" value="" style="edgeStyle=orthogonalEdgeStyle;html=1;verticalAlign=bottom;endArrow=open;endSize=8;strokeColor=#ff0000;rounded=0;" edge="1" source="O70aOBj58ElGAtLsK645-2" parent="1">
          <mxGeometry relative="1" as="geometry">
            <mxPoint x="414" y="340" as="targetPoint" />
          </mxGeometry>
        </mxCell>
        <mxCell id="O70aOBj58ElGAtLsK645-4" value="Get selected&lt;br&gt;object IP address" style="html=1;whiteSpace=wrap;" vertex="1" parent="1">
          <mxGeometry x="359" y="350" width="110" height="50" as="geometry" />
        </mxCell>
        <mxCell id="O70aOBj58ElGAtLsK645-5" value="Get constant&lt;br&gt;panel visibility" style="html=1;whiteSpace=wrap;" vertex="1" parent="1">
          <mxGeometry x="359" y="440" width="110" height="50" as="geometry" />
        </mxCell>
        <mxCell id="O70aOBj58ElGAtLsK645-6" value="&lt;font style=&quot;font-size: 11px;&quot;&gt;index &amp;gt; &lt;br&gt;robots count - 1&lt;/font&gt;" style="rhombus;whiteSpace=wrap;html=1;fontColor=#000000;fillColor=#ffffc0;strokeColor=#ff0000;" vertex="1" parent="1">
          <mxGeometry x="356" y="529.5" width="116" height="58" as="geometry" />
        </mxCell>
        <mxCell id="O70aOBj58ElGAtLsK645-7" value="yes" style="edgeStyle=orthogonalEdgeStyle;html=1;align=left;verticalAlign=bottom;endArrow=open;endSize=8;strokeColor=#ff0000;rounded=0;entryX=0;entryY=0.5;entryDx=0;entryDy=0;" edge="1" source="O70aOBj58ElGAtLsK645-6" parent="1" target="O70aOBj58ElGAtLsK645-12">
          <mxGeometry x="-1" relative="1" as="geometry">
            <mxPoint x="550" y="554.5" as="targetPoint" />
            <mxPoint as="offset" />
          </mxGeometry>
        </mxCell>
        <mxCell id="O70aOBj58ElGAtLsK645-8" value="no" style="edgeStyle=orthogonalEdgeStyle;html=1;align=left;verticalAlign=top;endArrow=open;endSize=8;strokeColor=#ff0000;rounded=0;" edge="1" source="O70aOBj58ElGAtLsK645-6" parent="1">
          <mxGeometry x="0.0154" y="9" relative="1" as="geometry">
            <mxPoint x="414" y="610" as="targetPoint" />
            <mxPoint as="offset" />
          </mxGeometry>
        </mxCell>
        <mxCell id="O70aOBj58ElGAtLsK645-9" value="&lt;font color=&quot;#000000&quot;&gt;Selcted obeject&lt;br&gt;index is bigger than&amp;nbsp;&lt;br&gt;saved on server robots count&lt;br&gt;minus one&lt;/font&gt;" style="text;html=1;align=center;verticalAlign=middle;resizable=0;points=[];autosize=1;strokeColor=none;fillColor=none;rotation=45;" vertex="1" parent="1">
          <mxGeometry x="485" y="410" width="180" height="70" as="geometry" />
        </mxCell>
        <mxCell id="O70aOBj58ElGAtLsK645-11" value="Set name and IP address to be displayed" style="html=1;whiteSpace=wrap;" vertex="1" parent="1">
          <mxGeometry x="355" y="620" width="110" height="50" as="geometry" />
        </mxCell>
        <mxCell id="O70aOBj58ElGAtLsK645-12" value="Assing robots&lt;br&gt;count - 1 to index" style="html=1;whiteSpace=wrap;" vertex="1" parent="1">
          <mxGeometry x="555" y="533.5" width="110" height="50" as="geometry" />
        </mxCell>
        <mxCell id="O70aOBj58ElGAtLsK645-13" value="" style="edgeStyle=orthogonalEdgeStyle;html=1;align=left;verticalAlign=bottom;endArrow=open;endSize=8;strokeColor=#ff0000;rounded=0;exitX=0.5;exitY=1;exitDx=0;exitDy=0;entryX=1;entryY=0.5;entryDx=0;entryDy=0;" edge="1" parent="1" source="O70aOBj58ElGAtLsK645-12" target="O70aOBj58ElGAtLsK645-11">
          <mxGeometry x="-1" relative="1" as="geometry">
            <mxPoint x="670" y="650.5" as="targetPoint" />
            <mxPoint x="570" y="650" as="sourcePoint" />
            <mxPoint as="offset" />
          </mxGeometry>
        </mxCell>
        <mxCell id="O70aOBj58ElGAtLsK645-16" value="Get sticker&lt;br&gt;&lt;b&gt;Observable robots&lt;/b&gt;" style="html=1;dropTarget=0;whiteSpace=wrap;" vertex="1" parent="1">
          <mxGeometry x="320" y="720" width="180" height="80" as="geometry" />
        </mxCell>
        <mxCell id="O70aOBj58ElGAtLsK645-17" value="" style="shape=module;jettyWidth=8;jettyHeight=4;" vertex="1" parent="O70aOBj58ElGAtLsK645-16">
          <mxGeometry x="1" width="20" height="20" relative="1" as="geometry">
            <mxPoint x="-27" y="7" as="offset" />
          </mxGeometry>
        </mxCell>
        <mxCell id="O70aOBj58ElGAtLsK645-18" value="Adjust image&lt;br&gt;size and positon" style="html=1;whiteSpace=wrap;" vertex="1" parent="1">
          <mxGeometry x="355" y="840" width="110" height="50" as="geometry" />
        </mxCell>
        <mxCell id="O70aOBj58ElGAtLsK645-19" value="Save current&lt;br&gt;data to&lt;br&gt;logic service" style="html=1;whiteSpace=wrap;" vertex="1" parent="1">
          <mxGeometry x="355" y="920" width="110" height="50" as="geometry" />
        </mxCell>
        <mxCell id="O70aOBj58ElGAtLsK645-20" value="Override last&amp;nbsp;&lt;br&gt;used index" style="html=1;whiteSpace=wrap;" vertex="1" parent="1">
          <mxGeometry x="355" y="1000" width="110" height="50" as="geometry" />
        </mxCell>
        <mxCell id="O70aOBj58ElGAtLsK645-21" value="" style="ellipse;html=1;shape=endState;fillColor=#000000;strokeColor=#ff0000;" vertex="1" parent="1">
          <mxGeometry x="399" y="1090" width="30" height="30" as="geometry" />
        </mxCell>
        <mxCell id="O70aOBj58ElGAtLsK645-22" value="" style="edgeStyle=orthogonalEdgeStyle;html=1;verticalAlign=bottom;endArrow=open;endSize=8;strokeColor=#ff0000;rounded=0;" edge="1" parent="1">
          <mxGeometry relative="1" as="geometry">
            <mxPoint x="414" y="435" as="targetPoint" />
            <mxPoint x="414" y="405" as="sourcePoint" />
          </mxGeometry>
        </mxCell>
        <mxCell id="O70aOBj58ElGAtLsK645-24" value="" style="edgeStyle=orthogonalEdgeStyle;html=1;verticalAlign=bottom;endArrow=open;endSize=8;strokeColor=#ff0000;rounded=0;" edge="1" parent="1">
          <mxGeometry relative="1" as="geometry">
            <mxPoint x="413.71" y="715" as="targetPoint" />
            <mxPoint x="413.71" y="680" as="sourcePoint" />
          </mxGeometry>
        </mxCell>
        <mxCell id="O70aOBj58ElGAtLsK645-25" value="" style="edgeStyle=orthogonalEdgeStyle;html=1;verticalAlign=bottom;endArrow=open;endSize=8;strokeColor=#ff0000;rounded=0;" edge="1" parent="1">
          <mxGeometry relative="1" as="geometry">
            <mxPoint x="413.86" y="529.5" as="targetPoint" />
            <mxPoint x="413.86" y="494.5" as="sourcePoint" />
          </mxGeometry>
        </mxCell>
        <mxCell id="O70aOBj58ElGAtLsK645-26" value="" style="edgeStyle=orthogonalEdgeStyle;html=1;verticalAlign=bottom;endArrow=open;endSize=8;strokeColor=#ff0000;rounded=0;" edge="1" parent="1">
          <mxGeometry relative="1" as="geometry">
            <mxPoint x="413" y="835" as="targetPoint" />
            <mxPoint x="413" y="805" as="sourcePoint" />
          </mxGeometry>
        </mxCell>
        <mxCell id="O70aOBj58ElGAtLsK645-27" value="" style="html=1;verticalAlign=bottom;endArrow=open;endSize=8;strokeColor=#ff0000;rounded=0;" edge="1" parent="1">
          <mxGeometry relative="1" as="geometry">
            <mxPoint x="413" y="915" as="targetPoint" />
            <mxPoint x="413" y="895" as="sourcePoint" />
          </mxGeometry>
        </mxCell>
        <mxCell id="O70aOBj58ElGAtLsK645-28" value="" style="html=1;verticalAlign=bottom;endArrow=open;endSize=8;strokeColor=#ff0000;rounded=0;" edge="1" parent="1">
          <mxGeometry relative="1" as="geometry">
            <mxPoint x="413" y="995" as="targetPoint" />
            <mxPoint x="413" y="975" as="sourcePoint" />
          </mxGeometry>
        </mxCell>
        <mxCell id="O70aOBj58ElGAtLsK645-29" value="" style="html=1;verticalAlign=bottom;endArrow=open;endSize=8;strokeColor=#ff0000;rounded=0;" edge="1" parent="1">
          <mxGeometry relative="1" as="geometry">
            <mxPoint x="413" y="1085" as="targetPoint" />
            <mxPoint x="413" y="1055" as="sourcePoint" />
          </mxGeometry>
        </mxCell>
        <mxCell id="O70aOBj58ElGAtLsK645-31" value="" style="endArrow=classic;html=1;rounded=0;fillColor=#60a917;strokeColor=#2D7600;" edge="1" parent="1">
          <mxGeometry width="50" height="50" relative="1" as="geometry">
            <mxPoint x="520" y="480" as="sourcePoint" />
            <mxPoint x="460" y="540" as="targetPoint" />
          </mxGeometry>
        </mxCell>
      </root>
    </mxGraphModel>
  </diagram>
</mxfile>
